<?xml version="1.0" encoding="utf-8"?>
<!-- Generator: Adobe Illustrator 25.0.0, SVG Export Plug-In . SVG Version: 6.00 Build 0)  -->
<svg version="1.1" id="Layer_1" xmlns="http://www.w3.org/2000/svg" xmlns:xlink="http://www.w3.org/1999/xlink" x="0px" y="0px"
	 viewBox="0 0 119 41.8" style="enable-background:new 0 0 119 41.8;" xml:space="preserve">
<style type="text/css">
	.st0{fill:#201D1E;}
</style>
<g id="Group_1719" transform="translate(-163 -5.003)">
	<g id="Group_1693" transform="translate(112 25)">
		<g id="Group_1687" transform="translate(123.611 13.613)">
			<g id="Group_1686" transform="translate(0 0)">
				<path id="Path_7348" class="st0" d="M3.4,0.1H1C0.5,0.1,0,0.5,0,1c0,0.1,0,0.1,0,0.2v5.9c0,0.6,0.4,1,1,1.1c0.6,0,1-0.4,1.1-1
					c0,0,0-0.1,0-0.1V5.7h1.3c1.5,0.1,2.8-1,3-2.5c0-0.1,0-0.2,0-0.3c0.1-1.5-1-2.7-2.5-2.8C3.6,0.1,3.5,0.1,3.4,0.1z M2.9,4.2H2
					V1.7h0.9c0.7,0,1.3,0.5,1.4,1.2c0,0.7-0.5,1.3-1.2,1.4C3,4.2,2.9,4.2,2.9,4.2L2.9,4.2z"/>
				<path id="Path_7349" class="st0" d="M11.5,0c-0.5,0-1,0.3-1,0.9c0,0.1,0,0.1,0,0.2v6.1c0,0.6,0.4,1,1,1.1c0.6,0,1-0.4,1.1-1
					c0,0,0-0.1,0-0.1V1.1c0.1-0.5-0.3-1-0.8-1C11.7,0,11.6,0,11.5,0z"/>
				<path id="Path_7350" class="st0" d="M23.2,4.9c-0.4,0-0.8,0.2-0.9,0.6c-0.2,0.7-0.9,1.1-1.6,1.1c-1.1,0-1.8-0.9-1.8-2.5
					c0-1.5,0.7-2.5,1.8-2.5c0.7,0,1.3,0.4,1.6,1.1c0.1,0.4,0.5,0.6,0.9,0.6c0.4,0,0.8-0.3,0.9-0.7c0,0,0-0.1,0-0.1
					c0-0.3-0.1-0.5-0.2-0.7C23.3,0.6,22-0.1,20.7,0c-2.3,0-3.8,1.5-3.8,4.1s1.5,4.1,3.9,4.1c1.4,0.1,2.6-0.6,3.3-1.8
					c0.1-0.2,0.1-0.4,0.1-0.6c0-0.5-0.4-0.9-0.8-0.9C23.3,4.9,23.3,4.9,23.2,4.9z"/>
				<path id="Path_7351" class="st0" d="M32.9,3.7l1.9-2c0.2-0.2,0.4-0.5,0.4-0.8c0-0.5-0.4-0.9-0.9-0.9c0,0,0,0,0,0
					c-0.3,0-0.7,0.2-0.9,0.4l-2.7,3h0V1.1c0-0.6-0.4-1-1-1.1c-0.6,0-1,0.4-1.1,1c0,0,0,0.1,0,0.1v6.1c0,0.6,0.4,1,1,1.1
					c0.6,0,1-0.4,1.1-1c0,0,0-0.1,0-0.1V5.8L31.4,5l2,2.6c0.2,0.4,0.6,0.6,1,0.6c0.5,0,1-0.4,1-0.9c0,0,0,0,0,0c0-0.4-0.2-0.7-0.5-1
					L32.9,3.7z"/>
				<path id="Path_7352" class="st0" d="M43.5,3.3l-0.8-0.2c-0.9-0.2-1.2-0.4-1.2-0.8c0-0.5,0.4-0.8,1.2-0.8c0.5-0.1,1,0.2,1.3,0.7
					c0.2,0.4,0.6,0.6,0.9,0.5c0.4,0,0.8-0.3,0.8-0.7c0,0,0-0.1,0-0.1c0-0.1,0-0.3-0.1-0.4c-0.4-1-1.5-1.6-3-1.6
					c-1.8,0-3.1,1-3.1,2.5c0,1.2,0.8,2,2.4,2.3l0.8,0.2C43.7,5.1,44,5.3,44,5.8c0,0.5-0.5,0.8-1.3,0.8c-0.6,0.1-1.1-0.2-1.4-0.7
					c-0.2-0.3-0.5-0.5-0.9-0.5c-0.5,0-0.8,0.3-0.9,0.8c0,0,0,0.1,0,0.1c0,0.2,0,0.3,0.1,0.5c0.3,0.8,1.4,1.5,3.1,1.5
					c2.1,0,3.3-1,3.3-2.6C46,4.3,45.2,3.7,43.5,3.3z"/>
			</g>
		</g>
		<g id="Group_1688" transform="translate(51 -19.997)">
			<g id="Group_1680">
				<path id="Path_7330" class="st0" d="M18.4,21.3c1.3,0.1,2.5-0.8,2.6-2.1c0-0.2,0-0.3,0-0.5c0-6-4.2-10.2-10.4-10.2
					C4.1,8.5,0,12.9,0,20c0,7.1,4,11.3,10.9,11.3c4.2,0,7.6-1.6,9.1-4.3c0.3-0.4,0.4-0.9,0.4-1.5c0-1.2-0.9-2.2-2.1-2.2
					c-0.1,0-0.1,0-0.2,0c-0.7,0-1.5,0.3-1.9,0.9C14.9,26,13,27,10.9,26.9c-3,0-5-2.1-5-5.4v-0.3H18.4z M10.7,12.9
					c2.6,0,4.5,1.9,4.6,4.7H5.9C5.9,15,8.1,12.9,10.7,12.9L10.7,12.9z"/>
				<path id="Path_7331" class="st0" d="M65.7,28.2V11.6c0.1-1.7-1.2-3-2.9-3.1c-1.7-0.1-3,1.2-3.1,2.9c0,0.1,0,0.2,0,0.3v16.6
					c-0.1,1.7,1.2,3,2.9,3.1c1.7,0.1,3-1.2,3.1-2.9C65.7,28.3,65.7,28.3,65.7,28.2z"/>
				<path id="Path_7332" class="st0" d="M74.6,4c0.1-1.7-1.2-3-2.9-3.1c-1.7-0.1-3,1.2-3.1,2.9c0,0.1,0,0.2,0,0.3v24.2
					c-0.1,1.7,1.2,3,2.9,3.1c1.7,0.1,3-1.2,3.1-2.9c0-0.1,0-0.1,0-0.2V4z"/>
				<path id="Path_7338" class="st0" d="M62.7,6.2c1.7-0.1,3-1.5,3-3.3c-0.1-1.7-1.5-3-3.3-3c-1.7,0.1-3,1.4-3,3.1
					c0,1.7,1.4,3.1,3.1,3.1C62.6,6.2,62.7,6.2,62.7,6.2z"/>
				<path id="Path_7339" class="st0" d="M97.4,25.6c0-1.2-0.9-2.2-2.1-2.2c-0.1,0-0.1,0-0.2,0c-0.7,0-1.5,0.3-1.9,0.9
					c-1.2,1.7-3.2,2.7-5.2,2.6c-3,0-5-2.1-5-5.4v-0.3h12.5c1.3,0.1,2.5-0.8,2.6-2.1c0-0.2,0-0.3,0-0.5c0-6-4.2-10.2-10.4-10.2
					C81.1,8.5,77,12.9,77,20c0,7.1,4,11.3,10.9,11.3c4.2,0,7.6-1.6,9.1-4.3C97.2,26.6,97.3,26.1,97.4,25.6z M87.6,12.9
					c2.6,0,4.5,1.9,4.6,4.7h-9.3C82.9,15,85,12.9,87.6,12.9C87.6,12.9,87.6,12.9,87.6,12.9L87.6,12.9z"/>
				<path id="Path_7340" class="st0" d="M119,24.2c0-3.3-1.9-5-6.6-6l-3.6-0.8c-2.2-0.5-3.1-1.2-3.1-2.4c0-1.4,1.4-2.4,3.4-2.4
					c1.8,0,3.4,0.9,4.4,2.4c0.6,0.6,1.3,0.9,2.2,0.9c1.5,0,2.3-0.8,2.3-2c0-0.3-0.1-0.6-0.1-0.9c-0.7-2.5-4.1-4.5-8.6-4.5
					c-5.7,0-9.3,2.7-9.3,6.9c0,3.3,2.2,5.4,6.5,6.4l3.7,0.8c2.1,0.5,2.9,1.1,2.9,2.3c0,1.5-1.4,2.4-3.6,2.4
					c-1.9,0.2-3.7-0.7-4.8-2.2c-0.6-0.8-1.6-1.3-2.6-1.4c-1.2-0.1-2.3,0.9-2.4,2.1c0,0.1,0,0.1,0,0.2c0,0.4,0.1,0.8,0.2,1.1
					c1,2.6,4.4,4.4,9.4,4.4C115.1,31.3,119,28.5,119,24.2z"/>
				<path id="Path_7341" class="st0" d="M56.2,2.6L45.6,17.9L53,28.6c0.4-0.7,0.8-1.5,1.2-2.3c2.6-5.9,3.3-13.8,2.1-23.4L56.2,2.6z"
					/>
				<path id="Path_7342" class="st0" d="M46.9,1.3H34.2l6.3,9.9L46.9,1.3z"/>
				<path id="Path_7343" class="st0" d="M33.5,35.3c1.9,1.2,3.9,2.2,6.1,2.8l0.5,0.1l0.5-0.1c2.3-0.6,4.4-1.6,6.4-2.9l-6.7-10.3
					L33.5,35.3z"/>
				<path id="Path_7344" class="st0" d="M24.2,1.9l-0.1,1c-1.2,9.7-0.5,17.5,2.1,23.4c0.4,1,0.9,1.9,1.4,2.8l7.6-11.1L24.2,1.9z"/>
			</g>
		</g>
	</g>
</g>
</svg>
