<svg xmlns="http://www.w3.org/2000/svg" width="119" height="41.795" viewBox="0 0 119 41.795">
  <g id="Group_1719" data-name="Group 1719" transform="translate(-163 -5.003)">
    <g id="Group_1693" data-name="Group 1693" transform="translate(112 25)">
      <g id="Group_1687" data-name="Group 1687" transform="translate(123.611 13.613)">
        <g id="Group_1686" data-name="Group 1686" transform="translate(0 0)">
          <path id="Path_7348" data-name="Path 7348" d="M265.092,163.261h-2.417a.941.941,0,0,0-1.009,1.053v5.932a1.007,1.007,0,1,0,2.012,0v-1.392h1.294a2.73,2.73,0,0,0,2.971-2.79A2.666,2.666,0,0,0,265.092,163.261Zm-.543,4.079h-.872V164.8h.883a1.272,1.272,0,1,1-.011,2.538Z" transform="translate(-261.666 -163.124)" fill="#fff"/>
          <path id="Path_7349" data-name="Path 7349" d="M314.414,162.67a.937.937,0,0,0-1.009,1.047v6.058a1.007,1.007,0,1,0,2.012,0v-6.058A.933.933,0,0,0,314.414,162.67Z" transform="translate(-302.867 -162.653)" fill="#fff"/>
          <path id="Path_7350" data-name="Path 7350" d="M350.935,167.457a.884.884,0,0,0-.877.608,1.657,1.657,0,0,1-1.6,1.1c-1.107,0-1.8-.937-1.8-2.489,0-1.535.7-2.472,1.792-2.472a1.692,1.692,0,0,1,1.584,1.091.95.95,0,0,0,.937.619.813.813,0,0,0,.877-.85,1.547,1.547,0,0,0-.2-.734,3.4,3.4,0,0,0-3.218-1.738c-2.335,0-3.821,1.507-3.821,4.09s1.453,4.095,3.887,4.095a3.4,3.4,0,0,0,3.256-1.847,1.479,1.479,0,0,0,.126-.581A.865.865,0,0,0,350.935,167.457Z" transform="translate(-327.715 -162.589)" fill="#fff"/>
          <path id="Path_7351" data-name="Path 7351" d="M406.579,166.371l1.891-2a1.105,1.105,0,0,0,.373-.806.934.934,0,0,0-.948-.926,1.1,1.1,0,0,0-.877.449l-2.692,2.982h-.044V163.7a1.007,1.007,0,1,0-2.012,0v6.058a1.007,1.007,0,1,0,2.012,0v-1.31l.735-.767,2.05,2.56a1.214,1.214,0,0,0,1.036.57.95.95,0,0,0,.965-.97,1.63,1.63,0,0,0-.466-.987Z" transform="translate(-373.631 -162.632)" fill="#fff"/>
          <path id="Path_7352" data-name="Path 7352" d="M459.519,165.922l-.811-.154c-.861-.165-1.217-.395-1.217-.811,0-.466.428-.795,1.157-.795a1.3,1.3,0,0,1,1.277.685,1,1,0,0,0,.948.543.777.777,0,0,0,.844-.784,1.107,1.107,0,0,0-.082-.433c-.384-1-1.491-1.584-3-1.584-1.82,0-3.141.981-3.141,2.505,0,1.206.823,1.979,2.4,2.275l.817.153c.937.181,1.272.406,1.272.844,0,.482-.51.833-1.294.833a1.519,1.519,0,0,1-1.437-.7.982.982,0,0,0-.91-.532.819.819,0,0,0-.872.844,1.254,1.254,0,0,0,.1.5c.329.817,1.365,1.463,3.08,1.463,2.083,0,3.328-1.009,3.328-2.6C461.975,166.931,461.207,166.245,459.519,165.922Z" transform="translate(-415.989 -162.589)" fill="#fff"/>
        </g>
      </g>
      <g id="Group_1688" data-name="Group 1688" transform="translate(51 -19.997)">
        <g id="Group_1680" data-name="Group 1680">
          <path id="Path_7330" data-name="Path 7330" d="M33.814,64.11a2.362,2.362,0,0,0,2.6-2.6c0-5.96-4.178-10.219-10.4-10.219-6.492,0-10.608,4.485-10.608,11.55,0,7.106,4.035,11.345,10.9,11.345,4.239,0,7.639-1.6,9.093-4.3a3.076,3.076,0,0,0,.409-1.454,2.168,2.168,0,0,0-2.335-2.191,2.434,2.434,0,0,0-1.945.881,6.222,6.222,0,0,1-5.243,2.642c-3.031,0-5-2.13-5-5.386V64.11Zm-7.741-8.4c2.621,0,4.465,1.864,4.587,4.731H21.342A4.73,4.73,0,0,1,26.073,55.714Z" transform="translate(-15.403 -42.837)" fill="#fff"/>
          <path id="Path_7331" data-name="Path 7331" d="M260.425,71.094V54.505a2.993,2.993,0,1,0-5.98,0V71.094a2.992,2.992,0,1,0,5.98,0Z" transform="translate(-194.694 -42.898)" fill="#fff"/>
          <path id="Path_7332" data-name="Path 7332" d="M295.911,24.109a2.993,2.993,0,1,0-5.98,0V48.3a2.992,2.992,0,1,0,5.98,0Z" transform="translate(-221.31 -20.1)" fill="#fff"/>
          <path id="Path_7338" data-name="Path 7338" d="M256.528,23.683a3.109,3.109,0,1,0-3.258-3.1A3.11,3.11,0,0,0,256.528,23.683Z" transform="translate(-193.813 -17.472)" fill="#fff"/>
          <path id="Path_7339" data-name="Path 7339" d="M343.693,68.431a2.168,2.168,0,0,0-2.335-2.191,2.434,2.434,0,0,0-1.945.881,6.222,6.222,0,0,1-5.243,2.642c-3.031,0-5-2.13-5-5.386V64.11h12.533a2.362,2.362,0,0,0,2.6-2.6c0-5.96-4.178-10.219-10.4-10.219-6.492,0-10.608,4.485-10.608,11.55,0,7.106,4.034,11.345,10.895,11.345,4.239,0,7.639-1.6,9.093-4.3A3.076,3.076,0,0,0,343.693,68.431Zm-9.728-12.718c2.621,0,4.464,1.864,4.587,4.731h-9.318A4.73,4.73,0,0,1,333.966,55.714Z" transform="translate(-246.335 -42.837)" fill="#fff"/>
          <path id="Path_7340" data-name="Path 7340" d="M433.346,67c0-3.277-1.925-5-6.595-5.98l-3.625-.778c-2.191-.471-3.052-1.229-3.052-2.376,0-1.413,1.413-2.376,3.44-2.376a5.171,5.171,0,0,1,4.382,2.355,2.854,2.854,0,0,0,2.171.922c1.536,0,2.294-.84,2.294-2.048a3.443,3.443,0,0,0-.143-.881c-.717-2.478-4.055-4.547-8.6-4.547-5.693,0-9.318,2.7-9.318,6.9,0,3.256,2.171,5.447,6.471,6.369l3.686.778c2.15.471,2.908,1.106,2.908,2.294,0,1.454-1.413,2.355-3.584,2.355a5.348,5.348,0,0,1-4.792-2.232,3.389,3.389,0,0,0-2.6-1.352,2.26,2.26,0,0,0-2.417,2.294A3.325,3.325,0,0,0,414.2,69.8c1.045,2.58,4.4,4.383,9.441,4.383C429.435,74.186,433.346,71.36,433.346,67Z" transform="translate(-314.346 -42.837)" fill="#fff"/>
          <path id="Path_7341" data-name="Path 7341" d="M208.552,27.805,197.938,43.169l7.381,10.7a23.661,23.661,0,0,0,1.161-2.3c2.578-5.886,3.289-13.765,2.113-23.418Z" transform="translate(-152.312 -25.222)" fill="#fff"/>
          <path id="Path_7342" data-name="Path 7342" d="M165.064,22.7H152.418l6.292,9.878Z" transform="translate(-118.169 -21.397)" fill="#fff"/>
          <path id="Path_7343" data-name="Path 7343" d="M149.615,127.345a21.754,21.754,0,0,0,6.116,2.781l.506.145.505-.145a21.653,21.653,0,0,0,6.364-2.946l-6.692-10.348Z" transform="translate(-116.067 -91.996)" fill="#fff"/>
          <path id="Path_7344" data-name="Path 7344" d="M110.117,25.127l-.123,1.011c-1.175,9.654-.464,17.533,2.114,23.418a23.331,23.331,0,0,0,1.448,2.789L121.2,41.289Z" transform="translate(-85.938 -23.214)" fill="#fff"/>
        </g>
      </g>
    </g>
  </g>
</svg>
