<svg xmlns="http://www.w3.org/2000/svg" xmlns:xlink="http://www.w3.org/1999/xlink" width="140" height="64" viewBox="0 0 140 64">
  <defs>
    <clipPath id="clip-Artboard_4">
      <rect width="140" height="64"/>
    </clipPath>
  </defs>
  <g id="Artboard_4" data-name="Artboard – 4" clip-path="url(#clip-Artboard_4)">
    <rect width="140" height="64" fill="rgba(255,255,255,0)"/>
    <g id="Group_1719" transform="translate(-153 4.097)">
      <g id="Group_1693" transform="translate(112 25)">
        <g id="Group_1687" transform="translate(123.611 13.613)">
          <g id="Group_1686">
            <path id="Path_7348" d="M3.4.1H1A.987.987,0,0,0,0,1V7.1A1.09,1.09,0,0,0,1,8.2a1.09,1.09,0,0,0,1.1-1V5.7H3.4a2.852,2.852,0,0,0,3-2.5V2.9A2.608,2.608,0,0,0,3.9.1ZM2.9,4.2H2V1.7h.9A1.4,1.4,0,0,1,4.3,2.9,1.4,1.4,0,0,1,3.1,4.3a.31.31,0,0,0-.2-.1Z" fill="#201d1e"/>
            <path id="Path_7349" d="M11.5,0a.919.919,0,0,0-1,.9V7.2a1.051,1.051,0,0,0,2.1.1V1.1a.846.846,0,0,0-.8-1A.367.367,0,0,0,11.5,0Z" fill="#201d1e"/>
            <path id="Path_7350" d="M23.2,4.9a.875.875,0,0,0-.9.6,1.622,1.622,0,0,1-1.6,1.1c-1.1,0-1.8-.9-1.8-2.5,0-1.5.7-2.5,1.8-2.5a1.714,1.714,0,0,1,1.6,1.1.875.875,0,0,0,.9.6.961.961,0,0,0,.9-.7V2.5a1.445,1.445,0,0,0-.2-.7A3.321,3.321,0,0,0,20.7,0c-2.3,0-3.8,1.5-3.8,4.1s1.5,4.1,3.9,4.1a3.467,3.467,0,0,0,3.3-1.8,1.268,1.268,0,0,0,.1-.6.882.882,0,0,0-.8-.9Z" fill="#201d1e"/>
            <path id="Path_7351" d="M32.9,3.7l1.9-2a1.234,1.234,0,0,0,.4-.8.9.9,0,0,0-.9-.9h0a1.489,1.489,0,0,0-.9.4l-2.7,3h0V1.1A1.051,1.051,0,0,0,28.6,1V7.2a1.051,1.051,0,0,0,2.1.1V5.8l.7-.8,2,2.6a1.1,1.1,0,0,0,1,.6.987.987,0,0,0,1-.9h0a1.389,1.389,0,0,0-.5-1Z" fill="#201d1e"/>
            <path id="Path_7352" d="M43.5,3.3l-.8-.2c-.9-.2-1.2-.4-1.2-.8,0-.5.4-.8,1.2-.8a1.28,1.28,0,0,1,1.3.7.811.811,0,0,0,.9.5.773.773,0,0,0,.8-.7V1.9a.6.6,0,0,0-.1-.4,2.987,2.987,0,0,0-3-1.6c-1.8,0-3.1,1-3.1,2.5,0,1.2.8,2,2.4,2.3l.8.2c1,.2,1.3.4,1.3.9s-.5.8-1.3.8a1.343,1.343,0,0,1-1.4-.7,1.05,1.05,0,0,0-.9-.5.876.876,0,0,0-.9.8v.1a.9.9,0,0,0,.1.5c.3.8,1.4,1.5,3.1,1.5,2.1,0,3.3-1,3.3-2.6C46,4.3,45.2,3.7,43.5,3.3Z" fill="#201d1e"/>
          </g>
        </g>
        <g id="Group_1688" transform="translate(51 -19.997)">
          <g id="Group_1680">
            <path id="Path_7330" d="M18.4,21.3A2.365,2.365,0,0,0,21,19.2v-.5c0-6-4.2-10.2-10.4-10.2C4.1,8.5,0,12.9,0,20S4,31.3,10.9,31.3c4.2,0,7.6-1.6,9.1-4.3a2.41,2.41,0,0,0,.4-1.5,2.135,2.135,0,0,0-2.1-2.2h-.2a2.323,2.323,0,0,0-1.9.9,6.119,6.119,0,0,1-5.3,2.7c-3,0-5-2.1-5-5.4v-.3H18.4Zm-7.7-8.4a4.549,4.549,0,0,1,4.6,4.7H5.9a4.781,4.781,0,0,1,4.8-4.7Z" fill="#201d1e"/>
            <path id="Path_7331" d="M65.7,28.2V11.6a3,3,0,0,0-6-.2V28.3a3,3,0,0,0,6,.2Z" fill="#201d1e"/>
            <path id="Path_7332" d="M74.6,4a3,3,0,0,0-6-.2V28.3a3,3,0,0,0,6,.2V4Z" fill="#201d1e"/>
            <path id="Path_7338" d="M62.7,6.2a3.21,3.21,0,0,0,3-3.3,3.21,3.21,0,0,0-3.3-3,3.1,3.1,0,0,0,.1,6.2A.31.31,0,0,0,62.7,6.2Z" fill="#201d1e"/>
            <path id="Path_7339" d="M97.4,25.6a2.135,2.135,0,0,0-2.1-2.2h-.2a2.323,2.323,0,0,0-1.9.9A6.094,6.094,0,0,1,88,26.9c-3,0-5-2.1-5-5.4v-.3H95.5a2.365,2.365,0,0,0,2.6-2.1v-.5c0-6-4.2-10.2-10.4-10.2C81.1,8.5,77,12.9,77,20s4,11.3,10.9,11.3c4.2,0,7.6-1.6,9.1-4.3A5.732,5.732,0,0,0,97.4,25.6ZM87.6,12.9a4.549,4.549,0,0,1,4.6,4.7H82.9a4.7,4.7,0,0,1,4.7-4.7Z" fill="#201d1e"/>
            <path id="Path_7340" d="M119,24.2c0-3.3-1.9-5-6.6-6l-3.6-.8c-2.2-.5-3.1-1.2-3.1-2.4,0-1.4,1.4-2.4,3.4-2.4a5.244,5.244,0,0,1,4.4,2.4,2.94,2.94,0,0,0,2.2.9c1.5,0,2.3-.8,2.3-2,0-.3-.1-.6-.1-.9-.7-2.5-4.1-4.5-8.6-4.5-5.7,0-9.3,2.7-9.3,6.9,0,3.3,2.2,5.4,6.5,6.4l3.7.8c2.1.5,2.9,1.1,2.9,2.3,0,1.5-1.4,2.4-3.6,2.4a5.3,5.3,0,0,1-4.8-2.2,3.757,3.757,0,0,0-2.6-1.4,2.31,2.31,0,0,0-2.4,2.1V26a3.6,3.6,0,0,0,.2,1.1c1,2.6,4.4,4.4,9.4,4.4C115.1,31.3,119,28.5,119,24.2Z" fill="#201d1e"/>
            <path id="Path_7341" d="M56.2,2.6,45.6,17.9,53,28.6c.4-.7.8-1.5,1.2-2.3,2.6-5.9,3.3-13.8,2.1-23.4Z" fill="#201d1e"/>
            <path id="Path_7342" d="M46.9,1.3H34.2l6.3,9.9Z" fill="#201d1e"/>
            <path id="Path_7343" d="M33.5,35.3a22.524,22.524,0,0,0,6.1,2.8l.5.1.5-.1A21.756,21.756,0,0,0,47,35.2L40.3,24.9Z" fill="#201d1e"/>
            <path id="Path_7344" d="M24.2,1.9l-.1,1q-1.8,14.55,2.1,23.4a24.371,24.371,0,0,0,1.4,2.8L35.2,18Z" fill="#201d1e"/>
          </g>
        </g>
      </g>
    </g>
  </g>
</svg>
