<svg id="Layer_1" data-name="Layer 1" xmlns="http://www.w3.org/2000/svg" viewBox="0 0 2273.07 2182.68"><defs><style>.cls-1{fill:#ad9963;}</style></defs><g id="G"><path class="cls-1" d="M1709.76,708.24,1281.3,452.37c-59.43-36.65-114.85-21.73-150.85-2.72L700.62,716a5.29,5.29,0,0,0-1.28,1.08L691.65,726C673.1,747.2,650,773.62,650,823.44v490.49c0,49.84,23.11,76.24,41.66,97.48l7.69,8.93a5.87,5.87,0,0,0,1.28,1.1l429.51,266.09c36.32,19.18,91.74,34.12,151.22-2.57l428.17-255.65c38.9-26.46,58.5-61.28,58.5-103.63V1161.82c0-49.5-44.28-62.56-67.66-62.56H873.1a5.19,5.19,0,0,0-5.21,5.19v146.09a5.23,5.23,0,0,0,5.21,5.25h728.34c12.82,0,14.22,14.35,14.32,16v31.72c0,20.76-20.49,28.69-21.38,29l-353.56,215.67c-26.26,14.34-55.58,10.91-69.68.28L818,1330.33c-18.79-16.7-13.31-45-13.25-45.36l.1-431.54c-.12-1.15-4.47-28.55,14.1-47.16l351.79-217.11c14.49-10.89,43.81-14.36,70.27.13l352.5,215.12c1.75.75,22.24,8.72,22.24,29.46v32.06c-.1,1.28-1.5,15.65-14.32,15.65H873.1a5.22,5.22,0,0,0-5.21,5.23V1032.9a5.21,5.21,0,0,0,5.21,5.21h827.26c23.38,0,67.66-13.08,67.66-62.58V811.69c0-42.37-19.6-77.17-58.26-103.45" transform="translate(-72.47 -69.59)"/></g><path id="Schild" class="cls-1" d="M1821.31,130.25a24.26,24.26,0,0,1,24.26,24.27V1427.68a24.26,24.26,0,0,1-11.6,20.7l-612.3,374.72a24.25,24.25,0,0,1-25.33,0L584,1448.38a24.28,24.28,0,0,1-11.6-20.7V154.52a24.27,24.27,0,0,1,24.27-24.27h1224.6m0-60.66H596.71a85,85,0,0,0-84.93,84.93V1427.68a85.47,85.47,0,0,0,40.6,72.44l612.3,374.72a84.91,84.91,0,0,0,88.66,0l612.3-374.72a85.46,85.46,0,0,0,40.59-72.44V154.52a85,85,0,0,0-84.92-84.93Z" transform="translate(-72.47 -69.59)"/><g id="FC_GRONINGEN" data-name="FC GRONINGEN"><path class="cls-1" d="M638.79,217.85h75.49v22.38H665.34v17.14H713.2v22.54H665.34v40.9H638.79Z" transform="translate(-72.47 -69.59)"/><path class="cls-1" d="M723.43,269.41c0-31.8,24.08-53.26,55-53.26,25.62,0,38.9,14,45.69,27.63l-22.85,10.81a25,25,0,0,0-22.84-15c-16.06,0-27.94,13-27.94,29.8s11.88,29.79,27.94,29.79a25,25,0,0,0,22.84-15L824.08,295c-6.64,13.28-20.07,27.64-45.69,27.64C747.51,322.67,723.43,301.05,723.43,269.41Z" transform="translate(-72.47 -69.59)"/><path class="cls-1" d="M925.58,216.15c22.54,0,36.43,11.11,44,23.93l-22.23,11.73a25.58,25.58,0,0,0-21.76-12.2c-16.83,0-28.71,13-28.71,29.8s11.88,29.79,28.71,29.79c8,0,15.28-2.78,19.45-6.17v-8.65H921.41V262.31h49.71V302.6C960,314.79,945,322.67,925.58,322.67c-30.72,0-55.73-20.54-55.73-53.26S894.86,216.15,925.58,216.15Z" transform="translate(-72.47 -69.59)"/><path class="cls-1" d="M1026.91,285.93h-13.58v34.88H986.78v-103h51.56c22.84,0,35.81,15.13,35.81,34.27,0,17.91-11,27.48-20.53,30.87l21,37.82H1044.2Zm7.41-45.7h-21v23.16h21c7,0,12.82-4.48,12.82-11.58S1041.27,240.23,1034.32,240.23Z" transform="translate(-72.47 -69.59)"/><path class="cls-1" d="M1138.72,216.15c31.5,0,55,21.92,55,53.26s-23.47,53.26-55,53.26-55.1-21.92-55.1-53.26S1107.24,216.15,1138.72,216.15Zm0,23.46c-17.13,0-28.09,13-28.09,29.8,0,16.67,11,29.79,28.09,29.79s28-13.12,28-29.79C1166.67,252.58,1155.71,239.61,1138.72,239.61Z" transform="translate(-72.47 -69.59)"/><path class="cls-1" d="M1233.73,258.6v62.21h-26.55v-103h27.32l41.68,59.28V217.85h26.7v103h-25.62Z" transform="translate(-72.47 -69.59)"/><path class="cls-1" d="M1321.48,217.85H1348v103h-26.54Z" transform="translate(-72.47 -69.59)"/><path class="cls-1" d="M1393.12,258.6v62.21h-26.54v-103h27.32l41.68,59.28V217.85h26.7v103h-25.62Z" transform="translate(-72.47 -69.59)"/><path class="cls-1" d="M1531.35,216.15c22.54,0,36.43,11.11,44,23.93l-22.23,11.73a25.61,25.61,0,0,0-21.77-12.2c-16.83,0-28.71,13-28.71,29.8s11.88,29.79,28.71,29.79c8,0,15.28-2.78,19.45-6.17v-8.65h-23.62V262.31h49.71V302.6c-11.12,12.19-26.09,20.07-45.54,20.07-30.72,0-55.73-20.54-55.73-53.26S1500.63,216.15,1531.35,216.15Z" transform="translate(-72.47 -69.59)"/><path class="cls-1" d="M1592.55,217.85H1668v22.38H1619.1v17.14H1667v22.54H1619.1v18.52H1668v22.38h-75.48Z" transform="translate(-72.47 -69.59)"/><path class="cls-1" d="M1710.07,258.6v62.21h-26.55v-103h27.32l41.68,59.28V217.85h26.71v103H1753.6Z" transform="translate(-72.47 -69.59)"/></g><g id="_50_JAAR" data-name="50 JAAR"><path class="cls-1" d="M1133.87,2073.34c7.29,6.81,17.59,10.45,27.73,10.45,11.57,0,17.27-6.18,17.27-13,0-7.44-5.54-12.83-16.47-12.83-8.4,0-15.06,2.54-20.93,7.93l-18.85-4.6v-62h76.7v23h-50.39V2044a36.64,36.64,0,0,1,23.61-8.55c18.06,0,34.06,13,34.06,34.22,0,22.82-17.27,37.23-44.68,37.23-18.7,0-32.81-5.7-42.63-15.36Z" transform="translate(-72.47 -69.59)"/><path class="cls-1" d="M1260.22,1997.75c30.9,0,45.32,26.62,45.32,54.5s-14.42,54.67-45.32,54.67-45.32-26.77-45.32-54.67S1229.32,1997.75,1260.22,1997.75Zm0,24.08c-12.67,0-17.74,11.73-17.74,30.42s5.07,30.6,17.74,30.6S1278,2071,1278,2052.25,1272.9,2021.83,1260.22,2021.83Z" transform="translate(-72.47 -69.59)"/><path class="cls-1" d="M1024.23,2222c3.8,3.16,8.88,6.18,15.21,6.18,8.56,0,14.1-5.55,14.1-14.43v-69.09h27.26v69.42c0,26.14-15.84,38.18-39,38.18-10.62,0-21.08-2.53-29-9.5Z" transform="translate(-72.47 -69.59)"/><path class="cls-1" d="M1161.66,2234.37h-43.9l-5.38,16h-29.64l39.78-105.7h34.23l39.93,105.7h-29.63Zm-36.77-23h29.64l-14.89-42.94Z" transform="translate(-72.47 -69.59)"/><path class="cls-1" d="M1272.17,2234.37h-43.9l-5.38,16h-29.63l39.77-105.7h34.23l39.93,105.7h-29.63Zm-36.77-23H1265l-14.89-42.94Z" transform="translate(-72.47 -69.59)"/><path class="cls-1" d="M1356.22,2214.55h-13.94v35.82H1315v-105.7H1368c23.46,0,36.77,15.53,36.77,35.18,0,18.38-11.26,28.21-21.08,31.69l21.55,38.83H1374Zm7.61-46.9h-21.55v23.76h21.55c7.13,0,13.16-4.59,13.16-11.88S1371,2167.65,1363.83,2167.65Z" transform="translate(-72.47 -69.59)"/></g><g id="Wreath"><path class="cls-1" d="M203.82,1363.79a165.28,165.28,0,0,0,1.41,22.74,122,122,0,0,0,5,22.86,129.53,129.53,0,0,0,17.16-14.08,136.95,136.95,0,0,0,34.85-54.5,123.21,123.21,0,0,0,7.6-41.91,119.15,119.15,0,0,0-6.56-43.33,125.8,125.8,0,0,0-51.71,65.07,147.06,147.06,0,0,0-5.51,21A115.9,115.9,0,0,0,203.82,1363.79Z" transform="translate(-72.47 -69.59)"/><path class="cls-1" d="M877.49,2078.79l-2-.29a81.32,81.32,0,0,0-9.06-20,79.61,79.61,0,0,0-7.91-10.58q-2.18-2.46-4.53-4.71c-1.55-1.57-3.15-3.14-4.8-4.6a74.92,74.92,0,0,0-22.24-13.79,80.45,80.45,0,0,0-12.7-3.74,69.85,69.85,0,0,0-13.46-2.1,79.57,79.57,0,0,0,8.94,24.48A80.38,80.38,0,0,0,826.43,2063a93,93,0,0,0,14.67,10.21l-4-.82-27.23-5.57c-4.93-.87-9.91-2.35-15.08-3.72l-16-4.31-3.1-3.43a124.21,124.21,0,0,0-2.67-13.22q-1.28-4.92-2.92-9.65c-1.09-3.17-2.24-6.45-3.52-9.57a126.45,126.45,0,0,0-20.18-33.8c-4.18-4.73-8.42-9.84-13.12-14.14a102.1,102.1,0,0,0-15.08-11.69c-2.66-1.74-5.5-3.16-8.27-4.8s-5.63-3.13-8.58-4.49a98.7,98.7,0,0,0-18.78-6.43,111.6,111.6,0,0,0,5.4,38.27q1.5,4.62,3.4,9.16.95,2.27,2,4.5c.72,1.43,1.48,2.83,2.27,4.22a121.76,121.76,0,0,0,11,16.12,135.62,135.62,0,0,0,13.78,14.67,69,69,0,0,0,8,6.34c2.1,1.48,4.27,2.9,6.47,4.29l-8.92-3c-1.56-.54-3.15-1-4.71-1.61l-4.66-1.89-9.46-3.83c-14.64-5.74-29.7-12.28-45-19.64a190.54,190.54,0,0,0,0-25.85c-.34-4.81-.85-9.57-1.52-14.25q-.9-7.27-2.27-14.32a195.84,195.84,0,0,0-7.29-27.12c-1.51-4.33-3.19-8.51-5-12.65q-2.52-6.46-5.47-12.56A150.66,150.66,0,0,0,627,1885.63,146.87,146.87,0,0,0,610.72,1865c-3-3.16-6.21-6.08-9.47-9a125.88,125.88,0,0,0-21.08-16.39c-3.87-2.38-7.95-4.56-11.94-6.93-1.39,4.48-2.63,9.08-3.57,13.57s-1.63,9-2.14,13.46A151.23,151.23,0,0,0,562,1887c1,18.55,6.28,35.92,14.32,53a117.56,117.56,0,0,0,6.68,12.54q3.78,5.94,8.11,11.7a176,176,0,0,0,19.38,22c1.88,1.65,3.79,3.28,5.75,4.89a731.77,731.77,0,0,1-71-46.2c-7-4.73-13.46-10.24-20.16-15.55l-5.31-4.26a135.23,135.23,0,0,0,4.36-18.91,166.94,166.94,0,0,0,1.77-21.69,136.1,136.1,0,0,0-5.58-42c-3.76-13.47-9.22-26.4-17.14-37.62a113.27,113.27,0,0,0-28.94-30.91,118,118,0,0,0-10.5,40.24,128.56,128.56,0,0,0,0,21,112.27,112.27,0,0,0,4.05,20.67c3.94,13.62,9.84,27.4,18.75,39.32q1.59,2.23,3.29,4.44c-1.45-1.3-2.89-2.58-4.34-3.89l-9.79-8.76c-3.21-3-6.25-6.18-9.4-9.26L447.49,1859c-6.21-6.33-12-13.1-18-19.65-3.65-3.85-7.18-7.82-10.64-11.84a228.86,228.86,0,0,0,21.86-60.64c1.09-5.27,1.94-10.5,2.66-15.76s1.46-10.69,1.89-16a197.71,197.71,0,0,0,.12-31.15c-2.26-41.47-15.79-79.83-43.42-113.28a167.62,167.62,0,0,0-17.54,26.24A177.56,177.56,0,0,0,372,1645.65a156.81,156.81,0,0,0-4.27,15.16q-1.62,7.57-2.59,15.38a197.82,197.82,0,0,0-1.34,31.86,190.32,190.32,0,0,0,26.35,84.62c-1.19-1.54-2.32-3.12-3.49-4.68l-8-10.75C373.48,1770,368,1763,363,1755.68l-14.76-22.09-7.32-11-6.8-11.27-13.18-21.85a140.94,140.94,0,0,0,21.41-37.3,135.81,135.81,0,0,0,6.12-20.66c.74-3.49,1.28-7,1.79-10.47s1-7.12,1.24-10.67a130.69,130.69,0,0,0-21.32-81.65,128.25,128.25,0,0,0-13.24,16.72,116.93,116.93,0,0,0-9.8,18.41,129,129,0,0,0-10,41.06,148.8,148.8,0,0,0,4.22,43.54q2.07,7.11,4.77,14.19L302,1655c-2-3.74-4.09-7.47-5.88-11.3L285,1621c-8.43-17.55-16.15-35-23.25-52.14a214,214,0,0,0,40.73-52,265.25,265.25,0,0,0,14-29.22,198,198,0,0,0,9.32-30.23c10-41.06,7.62-83-10-123.66a181.49,181.49,0,0,0-43.88,45.06,161.18,161.18,0,0,0-15.1,27.6,200.36,200.36,0,0,0-10.37,30.34c-7.48,31.87-6.74,67.12,3.16,101.29-11.52-30.53-21-59.87-28.67-87-2-6.34-3.56-12.66-5.14-18.82s-3.12-12.17-4.63-18-3.1-11.55-4.26-17.16-2.38-11-3.52-16.32-2.24-10.37-3.3-15.29-2.13-9.67-2.87-14.27c-1.61-9.19-3.1-17.63-4.44-25.25-2.7-14.12-4-25.56-5.15-33.68a119.4,119.4,0,0,0,7.54-14.37,160.39,160.39,0,0,0,7.17-20.42,122.86,122.86,0,0,0,3.83-21.22c.32-3.57.48-7.17.48-10.77,0-1.8,0-3.6-.11-5.41s-.06-3.61-.15-5.43c-.63-14.48-4.12-29-9.66-43.09a141.89,141.89,0,0,0-23.86-40.6,124.56,124.56,0,0,0-27.27,88c.12,1.9.28,3.8.48,5.68s.58,3.76.93,5.62q1,5.6,2.54,11a126,126,0,0,0,7.81,21A95.92,95.92,0,0,0,169.11,1281a111.65,111.65,0,0,0,8.72,9.84c0,.26.06.51.1.78,1.13,8.26,2.33,20.46,5.11,35.82,1.29,7.69,2.71,16.21,4.25,25.49.7,4.65,1.73,9.44,2.76,14.42.64,3.1,1.29,6.28,2,9.52-1.26-3.37-2.6-6.7-4.06-10-3.21-7-6.41-13.73-10.1-20.22a168.42,168.42,0,0,0-12.31-18.62c-9.2-11.8-19-22.54-30.45-31.69A157.29,157.29,0,0,0,97.35,1274a148,148,0,0,0,5.6,50.08,143.68,143.68,0,0,0,22,42.53,124.45,124.45,0,0,0,34.28,30.3,113.63,113.63,0,0,0,20.17,9.48,112.35,112.35,0,0,0,20.07,4.87c.45,1.8.9,3.6,1.34,5.44q2.19,8.89,4.5,18.25c1.53,6.23,3,12.63,5,19,6,22,13.17,45.52,21.62,69.91a314.18,314.18,0,0,0-49.16-69.74,264.25,264.25,0,0,0-23.95-23.49,330.06,330.06,0,0,0-26.63-20.42,242.48,242.48,0,0,0-59.7-30.08,241.11,241.11,0,0,0,4.45,39.8q.94,4.86,2.09,9.63c.83,3.17,1.79,6.3,2.77,9.41q3,9.32,6.63,18.24t7.94,17.36a188.46,188.46,0,0,0,9.7,16.23,213.48,213.48,0,0,0,22.75,28.88,201.08,201.08,0,0,0,27.35,23.16,156.57,156.57,0,0,0,30.3,16.89,162.39,162.39,0,0,0,63.74,13c7.09,17.64,14.83,35.57,23.31,53.64l11,23c1.3,2.85,2.73,5.64,4.21,8.42-.58-.7-1.14-1.4-1.73-2.09a174.22,174.22,0,0,0-32.13-31.4,173,173,0,0,0-37.78-22.62,169.88,169.88,0,0,0-20.81-7.39,146.28,146.28,0,0,0-21.41-4.57q1.23,6.47,3,12.73c1.24,4.13,2.76,8.14,4.37,12.09a154.54,154.54,0,0,0,11.46,22.43,115.73,115.73,0,0,0,7,10.18q3.85,4.83,8,9.27a142.79,142.79,0,0,0,17.77,16q4.69,3.56,9.6,6.63a114.46,114.46,0,0,0,10.3,5.51,122.59,122.59,0,0,0,21.46,7.87,108,108,0,0,0,41.07,2.89.54.54,0,0,0,.07.13l13.5,22.86,6.8,11.5,7.32,11.25,14.78,22.57c5,7.49,10.52,14.68,15.77,22l2.78,3.84a337.72,337.72,0,0,0-62-46.51,269,269,0,0,0-29.8-15.8q-7.72-3.51-15.68-6.53c-5.29-2-10.4-4-15.72-5.79a257,257,0,0,0-32.49-8.59,267,267,0,0,0-33.45-4.27,157.75,157.75,0,0,0,7,19.3q4,9.4,8.63,18.36c6,12,13.75,23,21.94,33.18q6.15,7.65,12.8,14.67a163.33,163.33,0,0,0,14.19,13,213.09,213.09,0,0,0,30.64,21.46,201.86,201.86,0,0,0,33.4,14.32q8.44,2.74,16.93,4.59a169.73,169.73,0,0,0,17.37,2.5,162,162,0,0,0,34.2-.42,149.29,149.29,0,0,0,29.08-6.42c3.65,4.32,7.36,8.59,11.21,12.74,6.08,6.73,11.89,13.68,18.16,20.18l19,19.27c3.17,3.18,6.25,6.45,9.49,9.53l7.44,6.8c-12.32-6.67-24.61-12.61-37.69-16.77a222.5,222.5,0,0,0-21.67-5.61,167.36,167.36,0,0,0-21.78-3.32,164.39,164.39,0,0,0-44.26,2.22,143.08,143.08,0,0,0,15.51,21.34A139.32,139.32,0,0,0,380.72,1921c13.61,10.23,28.23,18.19,43.48,22.89a126.06,126.06,0,0,0,46.12,4.73,100.88,100.88,0,0,0,22.15-4.64,108.29,108.29,0,0,0,16.17-6.72l6.06,5c6.79,5.49,13.36,11.19,20.46,16.1a749.72,749.72,0,0,0,65,43.7,275,275,0,0,0-28.2-8.22q-7.35-1.69-14.82-2.92c-5-.79-9.75-1.84-14.7-2.51-19.57-2.94-40-3.15-59.44-2.14a234.75,234.75,0,0,0-29.49,3.85q-7.33,1.44-14.6,3.37c-4.81,1.26-9.47,2.57-14.16,4.12a121.15,121.15,0,0,0,12.3,13.56q6.51,6.38,13.43,12.14t14.16,10.88c4.93,3.28,10.09,6.19,15.23,9a200.74,200.74,0,0,0,31.57,13.61,199.75,199.75,0,0,0,32.68,6.66c5.39.62,10.74,1,16,1.13s10.74-.37,16-.91a155.45,155.45,0,0,0,30.24-6.18,118.49,118.49,0,0,0,27.44-12.28A137.86,137.86,0,0,0,653.36,2031c15.92,7.85,31.58,14.85,46.79,21l9.68,4,4.76,2c1.6.62,3.22,1.13,4.82,1.7l1.72.6c-3.5-.19-7-.19-10.44-.41a160.26,160.26,0,0,0-20.79.49,165.61,165.61,0,0,0-20.6,3.16l-10.06,2.33q-4.95,1.22-9.83,2.78a149.25,149.25,0,0,0-37.14,17.74,150,150,0,0,0,21.13,12.83q5.46,2.73,11,5a97.23,97.23,0,0,0,11.43,3.53,145.77,145.77,0,0,0,23,3.95c7.66.6,15.09.91,22.6-.21a117,117,0,0,0,41.11-12.9,87.42,87.42,0,0,0,8.88-5.46,103.62,103.62,0,0,0,8.27-6.57,102.25,102.25,0,0,0,10.06-10.23l3.67,1,16.4,4.58c5.3,1.47,10.4,3,15.45,4l26.35,5.68a97.94,97.94,0,0,0-11.89,2.58,103.93,103.93,0,0,0-25,10.75,90.57,90.57,0,0,0-21.16,16.22,94.47,94.47,0,0,0,14.78,5.65,81.89,81.89,0,0,0,15.19,2.27,88.56,88.56,0,0,0,29.21-3c2.3-.65,4.54-1.35,6.74-2.21s4.37-2,6.47-3.08a77.43,77.43,0,0,0,11.76-7.67,70.7,70.7,0,0,0,13.85-14.6l3.05.47c4.22.64,71.91,1.2,105.57,1.65a10.2,10.2,0,0,0,10.34-10.2h0a10.19,10.19,0,0,0-10.08-10.2C947.81,2079.84,881.48,2079.35,877.49,2078.79Z" transform="translate(-72.47 -69.59)"/><path class="cls-1" d="M2214.2,1363.79a166.89,166.89,0,0,1-1.42,22.74,122,122,0,0,1-5,22.86,130.28,130.28,0,0,1-17.17-14.08,136.95,136.95,0,0,1-34.85-54.5,123.2,123.2,0,0,1-7.59-41.91,118.94,118.94,0,0,1,6.56-43.33,125.84,125.84,0,0,1,51.7,65.07,148.42,148.42,0,0,1,5.52,21A116.71,116.71,0,0,1,2214.2,1363.79Z" transform="translate(-72.47 -69.59)"/><path class="cls-1" d="M1540.52,2078.79l2-.29a81.67,81.67,0,0,1,9-20,80.56,80.56,0,0,1,7.92-10.58c1.44-1.64,3-3.21,4.52-4.71s3.15-3.14,4.81-4.6a74.87,74.87,0,0,1,22.23-13.79,80.57,80.57,0,0,1,12.71-3.74,69.85,69.85,0,0,1,13.46-2.1,72.92,72.92,0,0,1-25.67,44,92.57,92.57,0,0,1-14.67,10.21l4-.82,27.22-5.57c4.94-.87,9.91-2.35,15.09-3.72l16-4.31,3.09-3.43a126.74,126.74,0,0,1,2.67-13.22q1.27-4.92,2.92-9.65c1.09-3.17,2.24-6.45,3.53-9.57a126.69,126.69,0,0,1,20.17-33.8c4.19-4.73,8.42-9.84,13.13-14.14a101.5,101.5,0,0,1,15.07-11.69c2.67-1.74,5.51-3.16,8.27-4.8s5.64-3.13,8.58-4.49a98.56,98.56,0,0,1,18.79-6.43,111.61,111.61,0,0,1-5.41,38.27q-1.5,4.62-3.39,9.16c-.63,1.51-1.3,3-2,4.5s-1.49,2.83-2.28,4.22a120.8,120.8,0,0,1-11,16.12,134.54,134.54,0,0,1-13.77,14.67,69.15,69.15,0,0,1-8,6.34c-2.1,1.48-4.27,2.9-6.47,4.29l8.93-3c1.56-.54,3.15-1,4.71-1.61l4.66-1.89,9.46-3.83c14.63-5.74,29.7-12.28,45-19.64a190.54,190.54,0,0,1,0-25.85c.33-4.81.84-9.57,1.52-14.25q.89-7.27,2.27-14.32a194.44,194.44,0,0,1,7.29-27.12c1.5-4.33,3.18-8.51,5-12.65q2.54-6.46,5.47-12.56a150.71,150.71,0,0,1,13.52-22.77,146.08,146.08,0,0,1,16.25-20.64c3-3.16,6.21-6.08,9.48-9a124.3,124.3,0,0,1,10-8.69,126.3,126.3,0,0,1,11-7.7c3.87-2.38,8-4.56,11.94-6.93,1.39,4.48,2.64,9.08,3.58,13.57s1.63,9,2.13,13.46a150.32,150.32,0,0,1,.57,27.26c-1,18.55-6.28,35.92-14.31,53a119.39,119.39,0,0,1-6.68,12.54q-3.79,5.94-8.12,11.7a176.74,176.74,0,0,1-19.37,22q-2.82,2.47-5.75,4.89a731.65,731.65,0,0,0,71-46.2c7-4.73,13.47-10.24,20.17-15.55l5.3-4.26a136.62,136.62,0,0,1-4.35-18.91,165.21,165.21,0,0,1-1.78-21.69,136.4,136.4,0,0,1,5.58-42c3.77-13.47,9.23-26.4,17.14-37.62a125,125,0,0,1,12.79-16.57,122.69,122.69,0,0,1,16.15-14.34,118,118,0,0,1,10.5,40.24,128.56,128.56,0,0,1,0,21,113.08,113.08,0,0,1-4,20.67c-4,13.62-9.85,27.4-18.75,39.32q-1.6,2.23-3.29,4.44l4.34-3.89,9.79-8.76c3.21-3,6.25-6.18,9.39-9.26q9.36-9.35,18.79-18.72c6.21-6.33,12-13.1,18-19.65,3.64-3.85,7.17-7.82,10.64-11.84a228.51,228.51,0,0,1-21.86-60.64c-1.1-5.27-2-10.5-2.67-15.76s-1.45-10.69-1.88-16a197.73,197.73,0,0,1-.13-31.15c2.27-41.47,15.79-79.83,43.43-113.28a167.55,167.55,0,0,1,17.53,26.24,177.6,177.6,0,0,1,12.42,28.72,153.94,153.94,0,0,1,4.26,15.16q1.62,7.57,2.6,15.38a196.68,196.68,0,0,1,1.33,31.86c-1.72,28.6-10.62,58-26.35,84.62,1.19-1.54,2.33-3.12,3.5-4.68l7.94-10.75c5.23-7.21,10.72-14.23,15.72-21.56l14.76-22.09,7.32-11,6.81-11.27,13.18-21.85a140.71,140.71,0,0,1-21.42-37.3,135.76,135.76,0,0,1-6.11-20.66c-.75-3.49-1.29-7-1.8-10.47s-1-7.12-1.24-10.67a130.63,130.63,0,0,1,21.33-81.65,128.25,128.25,0,0,1,13.24,16.72,117.77,117.77,0,0,1,9.8,18.41,129,129,0,0,1,10,41.06,148.79,148.79,0,0,1-4.21,43.54q-2.07,7.11-4.78,14.19c1.4-2.56,2.79-5.13,4.18-7.68,2.06-3.74,4.09-7.47,5.89-11.3L2133,1621c8.43-17.55,16.16-35,23.25-52.14a214.47,214.47,0,0,1-40.73-52,267,267,0,0,1-14-29.22,195.81,195.81,0,0,1-9.32-30.23c-9.95-41.06-7.62-83,10-123.66a181.45,181.45,0,0,1,43.87,45.06,161.18,161.18,0,0,1,15.1,27.6,199.27,199.27,0,0,1,10.37,30.34c7.49,31.87,6.74,67.12-3.15,101.29,11.52-30.53,21-59.87,28.67-87,2-6.34,3.56-12.66,5.13-18.82s3.13-12.17,4.63-18,3.11-11.55,4.27-17.16,2.38-11,3.51-16.32,2.24-10.37,3.31-15.29,2.13-9.67,2.86-14.27c1.62-9.19,3.1-17.63,4.44-25.25,2.7-14.12,4-25.56,5.15-33.68a120.85,120.85,0,0,1-7.54-14.37,160.34,160.34,0,0,1-7.16-20.42,121,121,0,0,1-3.83-21.22c-.32-3.57-.49-7.17-.49-10.77,0-1.8,0-3.6.11-5.41s.06-3.61.15-5.43c.63-14.48,4.13-29,9.66-43.09a141.92,141.92,0,0,1,23.87-40.6,124.69,124.69,0,0,1,27.27,88c-.12,1.9-.28,3.8-.48,5.68s-.58,3.76-.93,5.62c-.7,3.73-1.54,7.42-2.55,11a126,126,0,0,1-7.81,21,95.88,95.88,0,0,1-11.76,18.83,111.65,111.65,0,0,1-8.72,9.84c0,.26-.07.51-.1.78-1.14,8.26-2.34,20.46-5.12,35.82-1.28,7.69-2.7,16.21-4.25,25.49-.7,4.65-1.72,9.44-2.75,14.42l-2,9.52c1.26-3.37,2.61-6.7,4.06-10,3.22-7,6.41-13.73,10.11-20.22a166.93,166.93,0,0,1,12.3-18.62c9.2-11.8,19-22.54,30.46-31.69a157,157,0,0,1,37.73-22.42,148,148,0,0,1-5.6,50.08,143.45,143.45,0,0,1-22,42.53,124.27,124.27,0,0,1-34.27,30.3,113.72,113.72,0,0,1-20.18,9.48,112.24,112.24,0,0,1-20.06,4.87c-.46,1.8-.91,3.6-1.34,5.44q-2.2,8.89-4.5,18.25c-1.54,6.23-3,12.63-5,19-6,22-13.17,45.52-21.62,69.91a313.82,313.82,0,0,1,49.15-69.74,265.67,265.67,0,0,1,24-23.49,326.57,326.57,0,0,1,26.63-20.42,242.41,242.41,0,0,1,59.69-30.08,241.11,241.11,0,0,1-4.44,39.8q-.95,4.86-2.09,9.63c-.83,3.17-1.79,6.3-2.77,9.41q-3,9.32-6.64,18.24t-7.94,17.36a188.46,188.46,0,0,1-9.7,16.23,212.7,212.7,0,0,1-22.75,28.88,201.61,201.61,0,0,1-27.34,23.16,156.57,156.57,0,0,1-30.3,16.89,162.44,162.44,0,0,1-63.75,13c-7.09,17.64-14.83,35.57-23.3,53.64l-11,23c-1.31,2.85-2.74,5.64-4.21,8.42.57-.7,1.14-1.4,1.72-2.09a190.18,190.18,0,0,1,69.91-54,170.61,170.61,0,0,1,20.82-7.39,146.43,146.43,0,0,1,21.4-4.57q-1.22,6.47-3,12.73c-1.25,4.13-2.76,8.14-4.37,12.09a154.59,154.59,0,0,1-11.47,22.43,115.73,115.73,0,0,1-7,10.18q-3.85,4.83-8,9.27a143.5,143.5,0,0,1-17.77,16q-4.7,3.56-9.6,6.63a115.83,115.83,0,0,1-10.3,5.51,122.69,122.69,0,0,1-21.47,7.87,107.91,107.91,0,0,1-41.06,2.89l-.07.13q-6.72,11.37-13.51,22.86-3.39,5.74-6.8,11.5-3.64,5.63-7.32,11.25l-14.78,22.57c-5,7.49-10.51,14.68-15.76,22l-2.78,3.84a337.38,337.38,0,0,1,62-46.51,268.14,268.14,0,0,1,29.8-15.8q7.71-3.51,15.67-6.53c5.29-2,10.4-4,15.73-5.79a256.83,256.83,0,0,1,32.48-8.59,266.92,266.92,0,0,1,33.46-4.27,161.15,161.15,0,0,1-7,19.3q-4,9.4-8.63,18.36c-6,12-13.76,23-21.94,33.18q-6.16,7.65-12.8,14.67a166.29,166.29,0,0,1-14.19,13,213.73,213.73,0,0,1-30.65,21.46,201.77,201.77,0,0,1-33.39,14.32q-8.45,2.74-16.93,4.59a170.53,170.53,0,0,1-17.37,2.5,162,162,0,0,1-34.2-.42,149.13,149.13,0,0,1-29.08-6.42c-3.65,4.32-7.37,8.59-11.21,12.74-6.08,6.73-11.9,13.68-18.17,20.18l-19,19.27c-3.18,3.18-6.25,6.45-9.5,9.53l-7.43,6.8c12.31-6.67,24.61-12.61,37.69-16.77a223.05,223.05,0,0,1,21.66-5.61,167.62,167.62,0,0,1,21.78-3.32,164.39,164.39,0,0,1,44.26,2.22,142.37,142.37,0,0,1-15.51,21.34,138.11,138.11,0,0,1-18.43,17.88c-13.61,10.23-28.23,18.19-43.47,22.89a126.11,126.11,0,0,1-46.13,4.73,100.79,100.79,0,0,1-22.14-4.64,108,108,0,0,1-16.18-6.72l-6,5c-6.8,5.49-13.37,11.19-20.47,16.1a749.72,749.72,0,0,1-65,43.7,275.22,275.22,0,0,1,28.21-8.22q7.35-1.69,14.82-2.92c5-.79,9.75-1.84,14.69-2.51,19.57-2.94,40-3.15,59.44-2.14a234.51,234.51,0,0,1,29.49,3.85q7.34,1.44,14.6,3.37c4.81,1.26,9.48,2.57,14.17,4.12a123.12,123.12,0,0,1-12.3,13.56q-6.51,6.38-13.44,12.14t-14.15,10.88c-4.94,3.28-10.09,6.19-15.24,9a164.69,164.69,0,0,1-64.25,20.27q-8.09.93-16,1.13c-5.38,0-10.74-.37-16-.91a155.61,155.61,0,0,1-30.24-6.18,140.78,140.78,0,0,1-14-5.23,143.58,143.58,0,0,1-13.41-7.05,138.43,138.43,0,0,1-19.56-14.11c-15.92,7.85-31.58,14.85-46.79,21l-9.67,4-4.77,2c-1.59.62-3.22,1.13-4.81,1.7l-1.73.6c3.5-.19,7-.19,10.45-.41a160.15,160.15,0,0,1,20.78.49,166.05,166.05,0,0,1,20.61,3.16l10.06,2.33q5,1.22,9.83,2.78a149.42,149.42,0,0,1,37.14,17.74,150.53,150.53,0,0,1-21.13,12.83c-3.64,1.82-7.33,3.48-11,5a96.8,96.8,0,0,1-11.44,3.53,145.58,145.58,0,0,1-23,3.95c-7.66.6-15.09.91-22.59-.21a117,117,0,0,1-41.11-12.9,86.33,86.33,0,0,1-8.88-5.46,105.61,105.61,0,0,1-8.28-6.57,103.35,103.35,0,0,1-10.06-10.23l-3.67,1-16.39,4.58c-5.3,1.47-10.4,3-15.46,4l-26.35,5.68a98.1,98.1,0,0,1,11.9,2.58,104.1,104.1,0,0,1,25,10.75,90.72,90.72,0,0,1,21.15,16.22,94.1,94.1,0,0,1-14.78,5.65,81.78,81.78,0,0,1-15.18,2.27,88.59,88.59,0,0,1-29.22-3c-2.29-.65-4.54-1.35-6.74-2.21s-4.37-2-6.46-3.08a78,78,0,0,1-11.77-7.67,70.7,70.7,0,0,1-13.85-14.6l-3,.47c-4.22.64-71.9,1.2-105.56,1.65a10.2,10.2,0,0,1-10.34-10.2h0a10.19,10.19,0,0,1,10.08-10.2C1470.21,2079.84,1536.54,2079.35,1540.52,2078.79Z" transform="translate(-72.47 -69.59)"/></g></svg>