<svg xmlns="http://www.w3.org/2000/svg" xmlns:xlink="http://www.w3.org/1999/xlink" width="398" height="357" viewBox="0 0 398 357">
  <defs>
    <clipPath id="clip-Artboard_3">
      <rect width="398" height="357"/>
    </clipPath>
  </defs>
  <g id="Artboard_3" data-name="Artboard – 3" clip-path="url(#clip-Artboard_3)">
    <rect width="398" height="357" fill="rgba(255,255,255,0)"/>
    <path id="Path_1" data-name="Path 1" d="M9.54,310.74h9.3l-8.07,45.74h24L33.26,365H0Z" transform="translate(0 -124)" fill="#fff"/>
    <path id="Path_2" data-name="Path 2" d="M48.53,323.15h8.91L50.08,365H41.16ZM50.78,309h9.53l-1.55,9H49.14Z" transform="translate(0 -124)" fill="#fff"/>
    <path id="Path_3" data-name="Path 3" d="M68.14,323.15h8.91l-1.08,6c3.88-3.73,7.13-6.36,14.49-6.36,8.14,0,10.78,3.25,9.46,10.46L94.34,365H85.5L91,333.92c.39-2.32-.31-3.18-3.41-3.18a22.25,22.25,0,0,0-12.41,3.34L69.69,365H60.77Z" transform="translate(0 -124)" fill="#fff"/>
    <path id="Path_4" data-name="Path 4" d="M111.86,323.15h8.91l-1.08,6c3.87-3.73,7.13-6.36,14.5-6.36,8.14,0,10.77,3.25,9.45,10.46L138.06,365h-8.84l5.51-31.09c.39-2.32-.31-3.18-3.41-3.18a22.25,22.25,0,0,0-12.41,3.34L113.41,365h-8.92Z" transform="translate(0 -124)" fill="#fff"/>
    <path id="Path_5" data-name="Path 5" d="M186.05,333.38l-2.25,13.1H159.45L158,354.7c-.39,2.17.31,2.94,2.33,2.94h9.77c2.09,0,3-.77,3.41-2.94l.54-3.18h8.84l-.55,3.26c-1.24,7-5,10.23-11.86,10.23h-13.2c-6.82,0-9.45-3.26-8.21-10.23l3.79-21.4c1.25-7,5-10.23,11.79-10.23h13.18C184.65,323.15,187.29,326.4,186.05,333.38Zm-11.24-2.87H165c-2,0-2.95.78-3.26,2.95l-1.24,6.74H176l1.24-6.74C177.52,331.29,176.9,330.51,174.81,330.51Z" transform="translate(0 -124)" fill="#fff"/>
    <path id="Path_6" data-name="Path 6" d="M193.8,354.78l4.26-24.27h-6.13l1.32-7.36h6.21l1.78-10.08h8.68l-1.78,10.08h9.3l-1.24,7.36h-9.3l-4.19,24c-.39,2.17.23,2.95,2.25,2.95h6.43L210.07,365h-8.13C195.11,365,192.55,361.75,193.8,354.78Z" transform="translate(0 -124)" fill="#fff"/>
    <path id="Path_7" data-name="Path 7" d="M217.36,354.23l.47-2.71h8.76l-.55,2.87c-.46,2.63.24,3.41,2.25,3.41h9.62c2.09,0,3-.93,3.72-4.88.69-4.11,0-4.73-2.17-5l-11.25-1.79c-6.12-1-8.37-3.17-7-10.85,1.55-8.84,5.27-12.09,12.09-12.09h11.32c6.9,0,9.46,3.25,8.22,10.46l-.39,2.33h-8.76l.39-2.41c.46-2.4-.24-3.17-2.25-3.17h-8.14c-2,0-3,.93-3.65,4.41-.62,3.65,0,4.19,2.25,4.5l11.32,1.78c6.05,1,8.3,3.18,6.82,11.32C248.84,361.75,245,365,238.22,365h-12.8C218.6,365,216,361.75,217.36,354.23Z" transform="translate(0 -124)" fill="#fff"/>
    <path id="Path_8" data-name="Path 8" d="M265.81,310.74h31c7,0,9.77,3.41,8.45,10.55l-1,6c-1,5.66-2.63,8.92-8.06,9.93,5.58.54,6.05,5,5.19,9.92l-1.32,7.29c-1.23,7.13-5.19,10.54-12.16,10.54H256.27Zm18.53,42.95c1,0,1.32-.31,1.55-1.4l1.47-8.37c.16-1.08-.08-1.39-1.09-1.39H274.8l-1.94,11.16ZM287.52,332c1,0,1.39-.31,1.55-1.39l1.31-7.13c.16-1.09-.07-1.4-1.08-1.4H278.45L276.66,332Z" transform="translate(0 -124)" fill="#fff"/>
    <path id="Path_9" data-name="Path 9" d="M315.27,310.74h37.52l-2.1,12.1H327.75l-1.47,8.45h18.14l-2.1,11.93H324.18l-1.71,9.7h22.95L343.25,365H305.73Z" transform="translate(0 -124)" fill="#fff"/>
    <path id="Path_10" data-name="Path 10" d="M368.05,323.15H354.88l2.17-12.41H398l-2.17,12.41h-13.2L375.26,365H360.69Z" transform="translate(0 -124)" fill="#fff"/>
    <path id="Path_12" data-name="Path 12" d="M265.17,81.31H187.32l-13.43,76.42H206.2l1-6,4.12-23.35,3.95-22h33.2c2.23,0,2.75.68,2.4,3.09L248,125.27c-.34,2.4-1.2,3.09-3.43,3.09H230.3l-3.25,23.35h14.76c2.24,0,2.75.69,2.41,3.09L241,173.35c-.51,2.4-1.2,3.09-3.43,3.09h-18l-4.36,25.07h30.26c15.45,0,24.21-7.55,27-23.35L275.3,162c1.89-10.82.86-20.78-11.51-22,12-2.24,15.63-9.45,17.86-22l2.23-13.4C286.8,88.86,280.62,81.31,265.17,81.31Z" transform="translate(0 -16.31)" fill="#fff"/>
    <path id="Path_13" data-name="Path 13" d="M134.52,81.31H166.8l-17.39,95.13H203l-4.81,25.07h-84.8Z" transform="translate(0 -16.31)" fill="#fff"/>
  </g>
</svg>
