<svg width="348" height="79" viewBox="0 0 348 79" fill="none" xmlns="http://www.w3.org/2000/svg">
<path d="M21.6647 17.3979H29.1366L22.6529 54.1468H41.9352L40.722 60.992H14L21.6647 17.3979Z" fill="white"/>
<path d="M52.9906 27.3685H60.1491L54.2359 60.992H47.0693L52.9906 27.3685ZM54.7983 16H62.455L61.2097 23.2309H53.4807L54.7983 16Z" fill="white"/>
<path d="M68.7455 27.3685H75.904L75.0363 32.1891C78.1536 29.1923 80.7648 27.0793 86.678 27.0793C93.2179 27.0793 95.3389 29.6904 94.2784 35.4832L89.7953 60.992H82.693L87.1118 36.0215C87.4252 34.1575 86.8628 33.4666 84.3721 33.4666C80.857 33.3608 77.3888 34.2943 74.4016 36.15L69.9908 60.992H62.8242L68.7455 27.3685Z" fill="white"/>
<path d="M103.871 27.3685H111.03L110.162 32.1891C113.272 29.1923 115.891 27.0793 121.812 27.0793C128.352 27.0793 130.465 29.6904 129.404 35.4832L124.921 60.992H117.819L122.246 36.0134C122.559 34.1495 121.997 33.4585 119.506 33.4585C115.991 33.3528 112.523 34.2862 109.536 36.142L105.117 60.992H97.9502L103.871 27.3685Z" fill="white"/>
<path d="M163.478 35.5876L161.67 46.1125H142.107L140.942 52.7167C140.628 54.4601 141.191 55.0788 142.814 55.0788H150.663C152.342 55.0788 153.074 54.4601 153.403 52.7167L153.837 50.1618H160.939L160.497 52.781C159.501 58.405 156.48 61 150.969 61H140.363C134.884 61 132.771 58.3808 133.767 52.781L136.812 35.5876C137.816 29.9636 140.829 27.3685 146.285 27.3685H156.874C162.353 27.3685 164.474 29.9797 163.478 35.5876ZM154.447 33.2818H146.566C144.959 33.2818 144.196 33.9084 143.947 35.6519L142.95 41.067H155.403L156.4 35.6519C156.625 33.9084 156.127 33.2818 154.447 33.2818Z" fill="white"/>
<path d="M169.705 52.7809L173.127 33.2817H168.202L169.263 27.3685H174.252L175.682 19.27H182.656L181.226 27.3685H188.698L187.701 33.2817H180.229L176.863 52.564C176.55 54.3074 177.048 54.9341 178.671 54.9341H183.837L182.776 60.992H176.244C170.757 60.992 168.7 58.3808 169.705 52.7809Z" fill="white"/>
<path d="M188.633 52.339L189.011 50.1617H196.049L195.607 52.4676C195.238 54.5806 195.8 55.2073 197.415 55.2073H205.144C206.823 55.2073 207.554 54.4601 208.133 51.2866C208.687 47.9845 208.133 47.4863 206.389 47.2694L197.351 45.8313C192.434 45.0278 190.626 43.2844 191.727 37.1141C192.972 30.0118 195.961 27.4006 201.44 27.4006H210.535C216.079 27.4006 218.135 30.0118 217.139 35.8045L216.826 37.6765H209.788L210.101 35.7402C210.471 33.812 209.908 33.1933 208.293 33.1933H201.753C200.147 33.1933 199.343 33.9405 198.821 36.7365C198.323 39.669 198.821 40.1028 200.629 40.3519L209.723 41.782C214.584 42.5854 216.392 44.3369 215.203 50.8768C213.925 58.3808 210.84 60.9919 205.393 60.9919H195.109C189.63 60.9919 187.541 58.3808 188.633 52.339Z" fill="white"/>
<path d="M227.559 17.3979H252.466C258.089 17.3979 260.315 20.1377 259.254 25.8741L258.451 30.6947C257.648 35.2421 256.338 37.8613 251.975 38.6727C256.459 39.1066 256.836 42.6899 256.145 46.6427L255.085 52.4997C254.096 58.2282 250.915 60.9678 245.315 60.9678H219.895L227.559 17.3979ZM242.447 51.9052C243.25 51.9052 243.507 51.6561 243.692 50.7804L244.873 44.0557C245.002 43.188 244.809 42.9389 243.997 42.9389H234.782L233.223 51.9052H242.447ZM245.002 34.4788C245.805 34.4788 246.118 34.2298 246.247 33.3621L247.299 27.6336C247.428 26.7579 247.243 26.5088 246.432 26.5088H237.715L236.276 34.4788H245.002Z" fill="white"/>
<path d="M267.297 17.3979H297.441L295.754 27.1194H277.323L276.142 33.9084H290.716L289.029 43.4933H274.455L273.081 51.2866H291.52L289.776 60.992H259.632L267.297 17.3979Z" fill="white"/>
<path d="M309.701 27.3685H299.12L300.864 17.3979H333.764L332.02 27.3685H321.415L315.494 60.992H303.788L309.701 27.3685Z" fill="white"/>
</svg>
